<?xml version="1.0" encoding="utf-8"?>
<!-- Generator: Adobe Illustrator 15.0.0, SVG Export Plug-In . SVG Version: 6.00 Build 0)  -->
<!DOCTYPE svg PUBLIC "-//W3C//DTD SVG 1.1//EN" "http://www.w3.org/Graphics/SVG/1.1/DTD/svg11.dtd">
<svg version="1.1" id="Layer_1" xmlns="http://www.w3.org/2000/svg" xmlns:xlink="http://www.w3.org/1999/xlink" x="0px" y="0px"
	 width="46.595px" height="17.396px" viewBox="0 0 46.595 17.396" enable-background="new 0 0 46.595 17.396" xml:space="preserve">
<g>
	<path d="M36.675,0h7c0.886,0,1.73,0.718,1.886,1.604l1.019,5.777c0.095,0.537-0.243,0.995-0.776,1.014
		c-0.56,0.02-1.103-0.431-1.202-0.99l-0.677-3.842c-0.024-0.137-0.155-0.249-0.292-0.249h-0.728c-0.137,0-0.229,0.111-0.205,0.249
		l0.673,3.818c0.095,0.537-0.243,0.995-0.776,1.014c-0.561,0.02-1.104-0.431-1.202-0.99l-0.677-3.842
		c-0.024-0.137-0.155-0.249-0.292-0.249h-0.728c-0.121,0-0.207,0.086-0.208,0.201l0.675,3.831c0.102,0.58-0.285,1.049-0.864,1.049
		h-1.698c-0.58,0-1.132-0.47-1.234-1.049l-1.013-5.743C35.198,0.718,35.79,0,36.675,0z"/>
	<path d="M27.77,0h5.188c0.885,0,1.729,0.718,1.886,1.604l1.013,5.743c0.102,0.58-0.285,1.049-0.864,1.049s-1.133-0.47-1.235-1.049
		l-0.195-1.107C33.539,6.102,33.407,5.99,33.27,5.99h-3.7c-0.138,0-0.229,0.111-0.205,0.249l0.195,1.107
		c0.102,0.58-0.285,1.049-0.864,1.049s-1.133-0.47-1.235-1.049l-1.013-5.742C26.293,0.718,26.884,0,27.77,0z M28.5,4.138
		c0.024,0.137,0.155,0.249,0.292,0.249h4.692c0.137,0,0.229-0.111,0.205-0.249l-0.054-0.304c-0.024-0.137-0.155-0.249-0.292-0.249
		H28.65c-0.137,0-0.229,0.111-0.205,0.249L28.5,4.138z"/>
	<path d="M18.878,0h5.188c0.886,0,1.73,0.718,1.886,1.604l0.915,5.188c0.156,0.885-0.436,1.604-1.321,1.604h-5.99
		c-0.443,0-0.865-0.359-0.943-0.802c-0.078-0.443,0.218-0.802,0.661-0.802h5.246c0.138,0,0.229-0.111,0.205-0.249l-0.478-2.709
		c-0.024-0.137-0.155-0.249-0.293-0.249h-5.799c-0.137,0-0.268-0.111-0.292-0.249l-0.306-1.733C17.401,0.718,17.993,0,18.878,0z"/>
	<path d="M10.166,0h5.188c0.885,0,1.729,0.718,1.886,1.604l0.306,1.733c0.024,0.137-0.067,0.249-0.205,0.249h-6.295
		c-0.137,0-0.229,0.111-0.205,0.249l0.054,0.304c0.024,0.137,0.155,0.249,0.292,0.249h4.94c0.886,0,1.73,0.718,1.886,1.604
		l0.239,1.356c0.102,0.58-0.285,1.049-0.864,1.049s-1.133-0.47-1.235-1.049l-0.195-1.107c-0.024-0.138-0.155-0.249-0.292-0.249
		h-1.052l-2.697,2.248C11.6,8.502,11.063,8.429,10.74,8.06c-0.313-0.357-0.318-0.85-0.009-1.107l1.155-0.963H9.867
		c-0.137,0-0.268-0.111-0.292-0.249l-0.73-4.138C8.689,0.718,9.28,0,10.166,0z"/>
	<path d="M1.347,0h5.188c0.886,0,1.73,0.718,1.886,1.604l0.915,5.188c0.156,0.886-0.435,1.604-1.321,1.604H2.826
		c-0.885,0-1.729-0.718-1.886-1.604L0.025,1.604C-0.13,0.718,0.461,0,1.347,0z M7.193,6.543L6.715,3.834
		C6.691,3.697,6.56,3.585,6.423,3.585h-3.7c-0.137,0-0.229,0.111-0.205,0.249l0.478,2.709C3.02,6.681,3.151,6.792,3.288,6.792h3.7
		C7.125,6.792,7.217,6.681,7.193,6.543z"/>
</g>
<g>
	<path d="M27.842,9h5.188c0.886,0,1.73,0.718,1.886,1.604l0.915,5.188c0.156,0.885-0.436,1.604-1.321,1.604h-5.99
		c-0.443,0-0.865-0.359-0.943-0.802s0.218-0.802,0.661-0.802h5.246c0.138,0,0.229-0.111,0.205-0.249l-0.478-2.709
		c-0.024-0.137-0.155-0.249-0.293-0.249h-5.799c-0.137,0-0.268-0.111-0.292-0.249l-0.306-1.733C26.365,9.718,26.957,9,27.842,9z"/>
	<path d="M19.082,9h5.188c0.885,0,1.729,0.718,1.886,1.604l1.013,5.743c0.102,0.58-0.285,1.049-0.864,1.049s-1.133-0.47-1.235-1.049
		l-0.195-1.107c-0.024-0.138-0.155-0.249-0.292-0.249h-3.7c-0.138,0-0.229,0.111-0.205,0.249l0.195,1.107
		c0.102,0.58-0.285,1.049-0.864,1.049s-1.133-0.47-1.235-1.049l-1.013-5.742C17.604,9.718,18.196,9,19.082,9z M19.811,13.138
		c0.024,0.137,0.155,0.249,0.292,0.249h4.691c0.138,0,0.229-0.111,0.205-0.249l-0.053-0.304c-0.024-0.137-0.155-0.249-0.293-0.249
		h-4.691c-0.137,0-0.229,0.111-0.205,0.249L19.811,13.138z"/>
	<path d="M10.226,9h5.188c0.885,0,1.729,0.718,1.886,1.604l0.306,1.733c0.024,0.137-0.067,0.249-0.205,0.249h-6.295
		c-0.137,0-0.229,0.111-0.205,0.249l0.053,0.304c0.024,0.137,0.155,0.249,0.292,0.249h4.94c0.886,0,1.73,0.718,1.886,1.604
		l0.239,1.356c0.102,0.58-0.285,1.049-0.864,1.049s-1.132-0.47-1.234-1.049l-0.195-1.107c-0.024-0.138-0.155-0.249-0.293-0.249
		h-1.052l-2.697,2.248c-0.317,0.264-0.854,0.191-1.177-0.178c-0.313-0.357-0.318-0.85-0.009-1.107l1.155-0.963H9.927
		c-0.137,0-0.268-0.111-0.292-0.249l-0.729-4.138C8.749,9.718,9.34,9,10.226,9z"/>
	<path d="M1.347,9H7.89c0.137,0,0.268,0.111,0.292,0.249l1.393,7.898c0.024,0.137-0.067,0.249-0.205,0.249H2.827
		c-0.886,0-1.731-0.718-1.887-1.604l-0.915-5.188C-0.131,9.718,0.461,9,1.347,9z M2.996,15.543c0.024,0.138,0.155,0.249,0.292,0.249
		h3.949l-0.565-3.207H2.723c-0.137,0-0.229,0.111-0.205,0.249L2.996,15.543z"/>
</g>
</svg>
