<?xml version="1.0" encoding="utf-8"?>
<!-- Generator: Adobe Illustrator 15.0.0, SVG Export Plug-In . SVG Version: 6.00 Build 0)  -->
<!DOCTYPE svg PUBLIC "-//W3C//DTD SVG 1.1//EN" "http://www.w3.org/Graphics/SVG/1.1/DTD/svg11.dtd">
<svg version="1.1" id="Layer_1" xmlns="http://www.w3.org/2000/svg" xmlns:xlink="http://www.w3.org/1999/xlink" x="0px" y="0px"
	 width="120.409px" height="12.6px" viewBox="0 0 120.409 12.6" enable-background="new 0 0 120.409 12.6" xml:space="preserve">
<g>
	<g>
		<path fill="#FBF4B5" d="M11.601,2.137v6.225c0,0.96-0.778,1.738-1.738,1.738H3.37c-0.475,0-0.86-0.38-0.869-0.853
			C2.492,8.76,2.906,8.362,3.393,8.362h4.053c0.148,0,0.27-0.12,0.27-0.27V1.269C7.715,1.121,7.835,1,7.985,1h2.479
			C11.092,1,11.601,1.509,11.601,2.137z"/>
		<path fill="#FBF4B5" d="M21.259,2.738v6.224c0,0.629-0.509,1.138-1.138,1.138c-0.628,0-1.138-0.509-1.138-1.138V7.763
			c0-0.149-0.12-0.27-0.27-0.27h-4.011c-0.148,0-0.269,0.12-0.269,0.27v1.199c0,0.629-0.51,1.138-1.138,1.138
			c-0.629,0-1.138-0.509-1.138-1.138V2.738C12.16,1.778,12.937,1,13.897,1h5.624C20.481,1,21.259,1.778,21.259,2.738z M19.522,5.155
			c0-0.148-0.121-0.27-0.27-0.27h-5.086c-0.148,0-0.27,0.121-0.27,0.27v0.33c0,0.148,0.121,0.27,0.27,0.27h5.086
			c0.148,0,0.27-0.121,0.27-0.27V5.155z"/>
		<path fill="#FBF4B5" d="M30.867,2.137v6.225c0,0.96-0.778,1.738-1.738,1.738h-6.492c-0.48,0-0.869-0.39-0.869-0.869
			s0.389-0.869,0.869-0.869h5.686c0.149,0,0.27-0.12,0.27-0.27V7.763c0-0.149-0.12-0.27-0.27-0.27h-4.816
			c-0.96,0-1.738-0.779-1.738-1.739V2.137C21.767,1.509,22.276,1,22.905,1h1.61c0.629,0,1.138,0.509,1.138,1.137v3.642
			c0,0.149,0.121,0.27,0.27,0.27h0.789c0.148,0,0.27-0.121,0.27-0.27V2.137C26.981,1.509,27.49,1,28.119,1h1.61
			C30.358,1,30.867,1.509,30.867,2.137z"/>
		<path fill="#FBF4B5" d="M40.565,2.738v5.624c0,0.96-0.778,1.738-1.739,1.738h-7.092c-0.149,0-0.27-0.12-0.27-0.27V1.269
			c0-0.148,0.12-0.269,0.27-0.269h7.092C39.787,1,40.565,1.778,40.565,2.738z M38.29,5.155c0-0.148-0.121-0.27-0.27-0.27h-4.28
			v3.476h4.28c0.148,0,0.27-0.12,0.27-0.27V5.155z"/>
		<path fill="#FBF4B5" d="M50.185,2.738v1.878c0,0.148-0.121,0.269-0.27,0.269h-6.286c-0.148,0-0.27,0.121-0.27,0.27v0.33
			c0,0.148,0.121,0.27,0.27,0.27h5.687c0.48,0,0.869,0.389,0.869,0.87c0,0.479-0.389,0.869-0.869,0.869h-5.687
			c-0.148,0-0.27,0.12-0.27,0.27v0.329c0,0.149,0.121,0.27,0.27,0.27h5.687c0.48,0,0.869,0.39,0.869,0.869S49.796,10.1,49.316,10.1
			h-6.493c-0.96,0-1.738-0.778-1.738-1.738V2.738c0-0.96,0.778-1.738,1.738-1.738h5.624C49.407,1,50.185,1.778,50.185,2.738z"/>
		<path fill="#FBF4B5" d="M61.728,2.1v6.263c0,0.959-0.778,1.737-1.738,1.737h-2.772v-0.001c-0.611,0.021-1.113-0.467-1.113-1.073
			V4.862c0-0.149-0.121-0.27-0.27-0.27h-0.789c-0.132,0-0.24,0.094-0.265,0.218v4.152c0,0.629-0.509,1.138-1.138,1.138h-1.84
			c-0.629,0-1.138-0.509-1.138-1.138V2.738c0-0.96,0.777-1.738,1.737-1.738h4.775c0.593,0,1.073,0.48,1.073,1.074V8.24
			c0,0.148,0.121,0.27,0.27,0.27h0.789c0.149,0,0.27-0.121,0.27-0.27V2.074c0-0.606,0.502-1.095,1.113-1.073
			C61.275,1.021,61.728,1.517,61.728,2.1z"/>
		<path fill="#FBF4B5" d="M76.666,2.738v1.942c0,0.578-0.282,1.09-0.717,1.406c0.435,0.316,0.717,0.829,0.717,1.407v0.868
			c0,0.96-0.778,1.738-1.738,1.738h-7.093c-0.148,0-0.27-0.12-0.27-0.27V2.738c0-0.96,0.778-1.738,1.738-1.738h5.624
			C75.887,1,76.666,1.778,76.666,2.738z M74.39,5.155c0-0.148-0.121-0.27-0.27-0.27h-4.817v0.869h4.817
			c0.148,0,0.27-0.121,0.27-0.27V5.155z M74.39,7.763c0-0.149-0.121-0.27-0.27-0.27h-4.817v0.868h4.817c0.148,0,0.27-0.12,0.27-0.27
			V7.763z"/>
		<path fill="#FBF4B5" d="M86.259,2.738v6.224c0,0.629-0.509,1.138-1.138,1.138c-0.628,0-1.138-0.509-1.138-1.138V7.763
			c0-0.149-0.12-0.27-0.27-0.27h-4.011c-0.148,0-0.269,0.12-0.269,0.27v1.199c0,0.629-0.51,1.138-1.138,1.138
			c-0.629,0-1.138-0.509-1.138-1.138V2.738C77.16,1.778,77.937,1,78.897,1h5.624C85.481,1,86.259,1.778,86.259,2.738z M84.522,5.155
			c0-0.148-0.121-0.27-0.27-0.27h-5.086c-0.148,0-0.27,0.121-0.27,0.27v0.33c0,0.148,0.121,0.27,0.27,0.27h5.086
			c0.148,0,0.27-0.121,0.27-0.27V5.155z"/>
		<path fill="#FBF4B5" d="M95.84,2.738v1.878c0,0.148-0.121,0.269-0.27,0.269h-6.823c-0.149,0-0.27,0.121-0.27,0.27v0.33
			c0,0.148,0.12,0.27,0.27,0.27h5.354c0.96,0,1.738,0.778,1.738,1.739v0.868c0,0.96-0.778,1.738-1.738,1.738h-6.493
			c-0.48,0-0.869-0.39-0.869-0.869s0.389-0.869,0.869-0.869h5.687c0.148,0,0.27-0.12,0.27-0.27V7.763c0-0.149-0.121-0.27-0.27-0.27
			h-4.817c-0.96,0-1.738-0.779-1.738-1.739V2.738C86.74,1.778,87.518,1,88.478,1h5.624C95.062,1,95.84,1.778,95.84,2.738z"/>
		<path fill="#FBF4B5" d="M105.356,2.738v1.878c0,0.148-0.121,0.269-0.27,0.269h-6.823c-0.149,0-0.27,0.121-0.27,0.27v0.33
			c0,0.148,0.12,0.27,0.27,0.27h5.354c0.96,0,1.738,0.778,1.738,1.739v0.868c0,0.96-0.778,1.738-1.738,1.738h-6.493
			c-0.48,0-0.869-0.39-0.869-0.869s0.389-0.869,0.869-0.869h5.687c0.148,0,0.27-0.12,0.27-0.27V7.763c0-0.149-0.121-0.27-0.27-0.27
			h-4.817c-0.96,0-1.738-0.779-1.738-1.739V2.738c0-0.96,0.778-1.738,1.738-1.738h5.624C104.578,1,105.356,1.778,105.356,2.738z"/>
		<path fill="#FBF4B5" d="M107,10.1c-0.628,0-1.138-0.509-1.138-1.138V2.137C105.863,1.509,106.373,1,107,1h1.611
			c0.628,0,1.138,0.509,1.138,1.137v6.825c0,0.629-0.51,1.138-1.138,1.138H107z"/>
		<path fill="#FBF4B5" d="M119.409,2.738v1.878c0,0.148-0.121,0.269-0.27,0.269h-6.286c-0.148,0-0.27,0.121-0.27,0.27v0.33
			c0,0.148,0.121,0.27,0.27,0.27h5.687c0.48,0,0.869,0.389,0.869,0.87c0,0.479-0.389,0.869-0.869,0.869h-5.687
			c-0.148,0-0.27,0.12-0.27,0.27v0.329c0,0.149,0.121,0.27,0.27,0.27h5.687c0.48,0,0.869,0.39,0.869,0.869S119.02,10.1,118.54,10.1
			h-6.493c-0.96,0-1.738-0.778-1.738-1.738V2.738c0-0.96,0.778-1.738,1.738-1.738h5.624C118.63,1,119.409,1.778,119.409,2.738z"/>
	</g>
</g>
</svg>
