<?xml version="1.0" encoding="utf-8"?>
<!-- Generator: Adobe Illustrator 15.0.0, SVG Export Plug-In . SVG Version: 6.00 Build 0)  -->
<!DOCTYPE svg PUBLIC "-//W3C//DTD SVG 1.1//EN" "http://www.w3.org/Graphics/SVG/1.1/DTD/svg11.dtd">
<svg version="1.1" id="Layer_1" xmlns="http://www.w3.org/2000/svg" xmlns:xlink="http://www.w3.org/1999/xlink" x="0px" y="0px"
	 width="120.409px" height="12.6px" viewBox="0 0 120.409 12.6" enable-background="new 0 0 120.409 12.6" xml:space="preserve">
<g>
	<g>
		<path fill="#FFFFFF" d="M60.653,0c-0.627,0-1.18,0.29-1.56,0.732c-0.07,0.059-0.136,0.121-0.197,0.188
			C58.523,0.367,57.894,0,57.178,0h-4.775c-0.779,0-1.479,0.331-1.978,0.855C49.926,0.331,49.226,0,48.447,0h-5.624
			c-0.79,0-1.498,0.341-1.998,0.879C40.324,0.342,39.617,0,38.826,0h-7.092c-0.331,0-0.627,0.134-0.854,0.342
			C30.547,0.128,30.154,0,29.729,0h-1.61c-0.646,0-1.215,0.298-1.606,0.753c-0.078,0.065-0.148,0.134-0.217,0.209
			C25.913,0.384,25.259,0,24.515,0h-1.61c-0.624,0-1.181,0.273-1.572,0.701C20.849,0.27,20.218,0,19.521,0h-5.624
			c-0.711,0-1.354,0.279-1.841,0.726C11.664,0.284,11.099,0,10.463,0H7.985C7.57,0,7.218,0.213,6.987,0.521
			c-0.097,0.072-1.178,1.154-1.25,1.25C5.428,2.003,5.215,2.354,5.215,2.769v4.593H3.393c-0.506,0-1.001,0.208-1.357,0.571
			c-0.039,0.039-1.455,1.453-1.5,1.5C0.182,9.793-0.008,10.267,0,10.766C0.02,11.777,0.858,12.6,1.87,12.6h6.493
			c0.712,0,1.354-0.279,1.842-0.726c0.392,0.441,0.957,0.726,1.593,0.726c0.653,0,1.231-0.301,1.624-0.764
			c0.09-0.077,1.173-1.159,1.25-1.25c0.196-0.167,0.36-0.366,0.487-0.593h1.325v0.469c0,1.179,0.959,2.138,2.138,2.138
			c0.493,0,0.942-0.175,1.305-0.456c0.327,0.28,0.746,0.456,1.21,0.456h6.492c0.6,0,1.151-0.2,1.603-0.528
			c0.231,0.313,0.585,0.528,1.003,0.528h7.092c0.791,0,1.499-0.342,1.999-0.879c0.5,0.537,1.208,0.879,1.998,0.879h6.493
			c0.457,0,0.871-0.171,1.196-0.445c0.36,0.275,0.804,0.445,1.291,0.445h1.84c0.644,0,1.21-0.296,1.603-0.747
			c0.071-0.06,0.137-0.123,0.2-0.191c0.076,0.117,0.164,0.229,0.266,0.331c0.392,0.392,0.913,0.607,1.467,0.607h0.039h2.772
			c0.818,0,1.546-0.368,2.049-0.94c0.089-0.078,1.172-1.16,1.25-1.25c0.571-0.502,0.939-1.229,0.939-2.047V2.1
			C62.728,0.962,61.849,0.041,60.653,0z M11.601,8.362c0,0.96-0.778,1.738-1.738,1.738H3.37c-0.475,0-0.86-0.38-0.869-0.853
			C2.492,8.76,2.906,8.362,3.393,8.362h4.053c0.148,0,0.27-0.12,0.27-0.27V1.269C7.715,1.121,7.835,1,7.985,1h2.479
			c0.629,0,1.138,0.509,1.138,1.137V8.362z M21.259,8.962c0,0.629-0.509,1.138-1.138,1.138c-0.628,0-1.138-0.509-1.138-1.138V7.763
			c0-0.149-0.12-0.27-0.27-0.27h-4.011c-0.148,0-0.269,0.12-0.269,0.27v1.199c0,0.629-0.51,1.138-1.138,1.138
			c-0.629,0-1.138-0.509-1.138-1.138V2.738C12.16,1.778,12.937,1,13.897,1h5.624c0.96,0,1.738,0.778,1.738,1.738V8.962z
			 M30.867,8.362c0,0.96-0.778,1.738-1.738,1.738h-6.492c-0.48,0-0.869-0.39-0.869-0.869s0.389-0.869,0.869-0.869h5.686
			c0.149,0,0.27-0.12,0.27-0.27V7.763c0-0.149-0.12-0.27-0.27-0.27h-4.816c-0.96,0-1.738-0.779-1.738-1.739V2.137
			C21.767,1.509,22.276,1,22.905,1h1.61c0.629,0,1.138,0.509,1.138,1.137v3.642c0,0.149,0.121,0.27,0.27,0.27h0.789
			c0.148,0,0.27-0.121,0.27-0.27V2.137C26.981,1.509,27.49,1,28.119,1h1.61c0.629,0,1.138,0.509,1.138,1.137V8.362z M40.565,8.362
			c0,0.96-0.778,1.738-1.739,1.738h-7.092c-0.149,0-0.27-0.12-0.27-0.27V1.269c0-0.148,0.12-0.269,0.27-0.269h7.092
			c0.961,0,1.739,0.778,1.739,1.738V8.362z M50.185,4.617c0,0.148-0.121,0.269-0.27,0.269h-6.286c-0.148,0-0.27,0.121-0.27,0.27
			v0.33c0,0.148,0.121,0.27,0.27,0.27h5.687c0.48,0,0.869,0.389,0.869,0.87c0,0.479-0.389,0.869-0.869,0.869h-5.687
			c-0.148,0-0.27,0.12-0.27,0.27v0.329c0,0.149,0.121,0.27,0.27,0.27h5.687c0.48,0,0.869,0.39,0.869,0.869S49.796,10.1,49.316,10.1
			h-6.493c-0.96,0-1.738-0.778-1.738-1.738V2.738c0-0.96,0.778-1.738,1.738-1.738h5.624c0.96,0,1.738,0.778,1.738,1.738V4.617z
			 M61.728,8.363c0,0.959-0.778,1.737-1.738,1.737h-2.772v-0.001c-0.611,0.021-1.113-0.467-1.113-1.073V4.862
			c0-0.149-0.121-0.27-0.27-0.27h-0.789c-0.132,0-0.24,0.094-0.265,0.218v4.152c0,0.629-0.509,1.138-1.138,1.138h-1.84
			c-0.629,0-1.138-0.509-1.138-1.138V2.738c0-0.96,0.777-1.738,1.737-1.738h4.775c0.593,0,1.073,0.48,1.073,1.074V8.24
			c0,0.148,0.121,0.27,0.27,0.27h0.789c0.149,0,0.27-0.121,0.27-0.27V2.074c0-0.606,0.502-1.095,1.113-1.073
			c0.582,0.021,1.035,0.517,1.035,1.099V8.363z"/>
		<path fill="#FFFFFF" d="M19.252,4.886h-5.086c-0.148,0-0.27,0.121-0.27,0.27v0.33c0,0.148,0.121,0.27,0.27,0.27h5.086
			c0.148,0,0.27-0.121,0.27-0.27v-0.33C19.522,5.007,19.401,4.886,19.252,4.886z"/>
		<path fill="#FFFFFF" d="M38.02,4.886h-4.28v3.476h4.28c0.148,0,0.27-0.12,0.27-0.27V5.155C38.29,5.007,38.168,4.886,38.02,4.886z"
			/>
	</g>
	<g>
		<path fill="#FFFFFF" d="M84.252,4.886h-5.086c-0.148,0-0.27,0.121-0.27,0.27v0.33c0,0.148,0.121,0.27,0.27,0.27h5.086
			c0.148,0,0.27-0.121,0.27-0.27v-0.33C84.522,5.007,84.401,4.886,84.252,4.886z"/>
		<g>
			<path fill="#FFFFFF" d="M74.121,4.886h-4.817v0.869h4.817c0.148,0,0.27-0.121,0.27-0.27v-0.33
				C74.39,5.007,74.269,4.886,74.121,4.886z"/>
			<path fill="#FFFFFF" d="M120.409,2.738c0-1.51-1.229-2.738-2.738-2.738h-5.624c-0.712,0-1.354,0.279-1.842,0.726
				C109.813,0.284,109.248,0,108.612,0H107c-0.624,0-1.181,0.273-1.571,0.701C104.945,0.27,104.315,0,103.618,0h-5.624
				c-0.761,0-1.449,0.313-1.946,0.815C95.551,0.313,94.863,0,94.102,0h-5.624c-0.779,0-1.479,0.331-1.979,0.855
				C86,0.331,85.3,0,84.521,0h-5.624c-0.783,0-1.485,0.334-1.984,0.863C76.413,0.334,75.71,0,74.927,0h-5.624
				c-0.818,0-1.546,0.369-2.049,0.94c-0.089,0.078-1.172,1.161-1.25,1.25c-0.571,0.502-0.939,1.229-0.939,2.048v7.093
				c0,0.7,0.569,1.27,1.27,1.27h7.093c0.693,0,1.32-0.268,1.804-0.694c0.391,0.424,0.945,0.694,1.566,0.694
				c0.653,0,1.231-0.301,1.624-0.764c0.09-0.077,1.173-1.159,1.25-1.25c0.196-0.167,0.36-0.366,0.487-0.593h1.325v0.469
				c0,1.179,0.959,2.138,2.138,2.138c0.487,0,0.931-0.17,1.291-0.445c0.325,0.274,0.739,0.445,1.196,0.445h6.493
				c0.632,0,1.207-0.224,1.671-0.585c0.341,0.358,0.819,0.585,1.352,0.585h6.493c0.697,0,1.327-0.271,1.812-0.7
				c0.391,0.428,0.947,0.7,1.571,0.7h1.611c0.636,0,1.201-0.284,1.593-0.726c0.487,0.446,1.13,0.726,1.842,0.726h6.493
				c0.579,0,1.091-0.271,1.434-0.685c0.092-0.076,1.175-1.159,1.25-1.25c0.415-0.344,0.686-0.855,0.686-1.435
				c0-0.507-0.202-0.966-0.53-1.304c0.328-0.337,0.53-0.797,0.53-1.303c0-0.417-0.138-0.803-0.369-1.114
				c0.229-0.229,0.369-0.545,0.369-0.894V2.738z M76.666,4.681c0,0.578-0.282,1.09-0.717,1.406c0.435,0.316,0.717,0.829,0.717,1.407
				v0.868c0,0.96-0.778,1.738-1.738,1.738h-7.093c-0.148,0-0.27-0.12-0.27-0.27V2.738c0-0.96,0.778-1.738,1.738-1.738h5.624
				c0.96,0,1.738,0.778,1.738,1.738V4.681z M86.259,8.962c0,0.629-0.509,1.138-1.138,1.138c-0.628,0-1.138-0.509-1.138-1.138V7.763
				c0-0.149-0.12-0.27-0.27-0.27h-4.011c-0.148,0-0.269,0.12-0.269,0.27v1.199c0,0.629-0.51,1.138-1.138,1.138
				c-0.629,0-1.138-0.509-1.138-1.138V2.738C77.16,1.778,77.937,1,78.897,1h5.624c0.96,0,1.738,0.778,1.738,1.738V8.962z
				 M95.84,4.617c0,0.148-0.121,0.269-0.27,0.269h-6.823c-0.149,0-0.27,0.121-0.27,0.27v0.33c0,0.148,0.12,0.27,0.27,0.27h5.354
				c0.96,0,1.738,0.778,1.738,1.739v0.868c0,0.96-0.778,1.738-1.738,1.738h-6.493c-0.48,0-0.869-0.39-0.869-0.869
				s0.389-0.869,0.869-0.869h5.687c0.148,0,0.27-0.12,0.27-0.27V7.763c0-0.149-0.121-0.27-0.27-0.27h-4.817
				c-0.96,0-1.738-0.779-1.738-1.739V2.738C86.74,1.778,87.518,1,88.478,1h5.624c0.96,0,1.738,0.778,1.738,1.738V4.617z
				 M105.356,4.617c0,0.148-0.121,0.269-0.27,0.269h-6.823c-0.149,0-0.27,0.121-0.27,0.27v0.33c0,0.148,0.12,0.27,0.27,0.27h5.354
				c0.96,0,1.738,0.778,1.738,1.739v0.868c0,0.96-0.778,1.738-1.738,1.738h-6.493c-0.48,0-0.869-0.39-0.869-0.869
				s0.389-0.869,0.869-0.869h5.687c0.148,0,0.27-0.12,0.27-0.27V7.763c0-0.149-0.121-0.27-0.27-0.27h-4.817
				c-0.96,0-1.738-0.779-1.738-1.739V2.738c0-0.96,0.778-1.738,1.738-1.738h5.624c0.96,0,1.738,0.778,1.738,1.738V4.617z
				 M109.75,8.962c0,0.629-0.51,1.138-1.138,1.138H107c-0.628,0-1.138-0.509-1.138-1.138V2.137C105.863,1.509,106.373,1,107,1h1.611
				c0.628,0,1.138,0.509,1.138,1.137V8.962z M119.409,4.617c0,0.148-0.121,0.269-0.27,0.269h-6.286c-0.148,0-0.27,0.121-0.27,0.27
				v0.33c0,0.148,0.121,0.27,0.27,0.27h5.687c0.48,0,0.869,0.389,0.869,0.87c0,0.479-0.389,0.869-0.869,0.869h-5.687
				c-0.148,0-0.27,0.12-0.27,0.27v0.329c0,0.149,0.121,0.27,0.27,0.27h5.687c0.48,0,0.869,0.39,0.869,0.869S119.02,10.1,118.54,10.1
				h-6.493c-0.96,0-1.738-0.778-1.738-1.738V2.738c0-0.96,0.778-1.738,1.738-1.738h5.624c0.96,0,1.738,0.778,1.738,1.738V4.617z"/>
			<path fill="#FFFFFF" d="M74.121,7.494h-4.817v0.868h4.817c0.148,0,0.27-0.12,0.27-0.27V7.763
				C74.39,7.614,74.269,7.494,74.121,7.494z"/>
		</g>
	</g>
</g>
</svg>
