<?xml version="1.0" encoding="utf-8"?>
<!-- Generator: Adobe Illustrator 15.0.0, SVG Export Plug-In . SVG Version: 6.00 Build 0)  -->
<!DOCTYPE svg PUBLIC "-//W3C//DTD SVG 1.1//EN" "http://www.w3.org/Graphics/SVG/1.1/DTD/svg11.dtd">
<svg version="1.1" id="Layer_1" xmlns="http://www.w3.org/2000/svg" xmlns:xlink="http://www.w3.org/1999/xlink" x="0px" y="0px"
	 width="1000px" height="1000px" viewBox="0 0 1000 1000" enable-background="new 0 0 1000 1000" xml:space="preserve">
<rect x="432.433" y="108.108" shape-rendering="crispEdges" width="27.027" height="27.026"/>
<rect x="513.514" y="108.108" shape-rendering="crispEdges" width="27.026" height="27.026"/>
<rect x="540.54" y="108.108" shape-rendering="crispEdges" width="27.027" height="27.026"/>
<rect x="621.622" y="108.108" shape-rendering="crispEdges" width="27.026" height="27.026"/>
<rect x="648.648" y="108.108" shape-rendering="crispEdges" width="27.027" height="27.026"/>
<rect x="378.378" y="135.135" shape-rendering="crispEdges" width="27.027" height="27.027"/>
<rect x="432.433" y="135.135" shape-rendering="crispEdges" width="27.027" height="27.027"/>
<rect x="621.622" y="135.135" shape-rendering="crispEdges" width="27.026" height="27.027"/>
<rect x="324.324" y="162.162" shape-rendering="crispEdges" width="27.027" height="27.027"/>
<rect x="351.352" y="162.162" shape-rendering="crispEdges" width="27.026" height="27.027"/>
<rect x="486.486" y="162.162" shape-rendering="crispEdges" width="27.027" height="27.027"/>
<rect x="540.54" y="162.162" shape-rendering="crispEdges" width="27.027" height="27.027"/>
<rect x="594.595" y="162.162" shape-rendering="crispEdges" width="27.027" height="27.027"/>
<rect x="621.622" y="162.162" shape-rendering="crispEdges" width="27.026" height="27.027"/>
<rect x="324.324" y="189.189" shape-rendering="crispEdges" width="27.027" height="27.026"/>
<rect x="378.378" y="189.189" shape-rendering="crispEdges" width="27.027" height="27.026"/>
<rect x="567.567" y="189.189" shape-rendering="crispEdges" width="27.027" height="27.026"/>
<rect x="594.595" y="189.189" shape-rendering="crispEdges" width="27.027" height="27.026"/>
<rect x="648.648" y="189.189" shape-rendering="crispEdges" width="27.027" height="27.026"/>
<rect x="324.324" y="216.216" shape-rendering="crispEdges" width="27.027" height="27.027"/>
<rect x="378.378" y="216.216" shape-rendering="crispEdges" width="27.027" height="27.027"/>
<rect x="432.433" y="216.216" shape-rendering="crispEdges" width="27.027" height="27.027"/>
<rect x="459.46" y="216.216" shape-rendering="crispEdges" width="27.026" height="27.027"/>
<rect x="486.486" y="216.216" shape-rendering="crispEdges" width="27.027" height="27.027"/>
<rect x="513.514" y="216.216" shape-rendering="crispEdges" width="27.026" height="27.027"/>
<rect x="594.595" y="216.216" shape-rendering="crispEdges" width="27.027" height="27.027"/>
<rect x="648.648" y="216.216" shape-rendering="crispEdges" width="27.027" height="27.027"/>
<rect x="324.324" y="243.243" shape-rendering="crispEdges" width="27.027" height="27.027"/>
<rect x="378.378" y="243.243" shape-rendering="crispEdges" width="27.027" height="27.027"/>
<rect x="405.405" y="243.243" shape-rendering="crispEdges" width="27.027" height="27.027"/>
<rect x="432.433" y="243.243" shape-rendering="crispEdges" width="27.027" height="27.027"/>
<rect x="459.46" y="243.243" shape-rendering="crispEdges" width="27.026" height="27.027"/>
<rect x="486.486" y="243.243" shape-rendering="crispEdges" width="27.027" height="27.027"/>
<rect x="513.514" y="243.243" shape-rendering="crispEdges" width="27.026" height="27.027"/>
<rect x="567.567" y="243.243" shape-rendering="crispEdges" width="27.027" height="27.027"/>
<rect x="324.324" y="270.271" shape-rendering="crispEdges" width="27.027" height="27.026"/>
<rect x="378.378" y="270.271" shape-rendering="crispEdges" width="27.027" height="27.026"/>
<rect x="432.433" y="270.271" shape-rendering="crispEdges" width="27.027" height="27.026"/>
<rect x="486.486" y="270.271" shape-rendering="crispEdges" width="27.027" height="27.026"/>
<rect x="540.54" y="270.271" shape-rendering="crispEdges" width="27.027" height="27.026"/>
<rect x="594.595" y="270.271" shape-rendering="crispEdges" width="27.027" height="27.026"/>
<rect x="648.648" y="270.271" shape-rendering="crispEdges" width="27.027" height="27.026"/>
<rect x="324.324" y="297.297" shape-rendering="crispEdges" width="27.027" height="27.027"/>
<rect x="351.352" y="297.297" shape-rendering="crispEdges" width="27.026" height="27.027"/>
<rect x="432.433" y="297.297" shape-rendering="crispEdges" width="27.027" height="27.027"/>
<rect x="459.46" y="297.297" shape-rendering="crispEdges" width="27.026" height="27.027"/>
<rect x="513.514" y="297.297" shape-rendering="crispEdges" width="27.026" height="27.027"/>
<rect x="621.622" y="297.297" shape-rendering="crispEdges" width="27.026" height="27.027"/>
<rect x="648.648" y="297.297" shape-rendering="crispEdges" width="27.027" height="27.027"/>
<rect x="108.108" y="324.324" shape-rendering="crispEdges" width="27.027" height="27.027"/>
<rect x="162.162" y="324.324" shape-rendering="crispEdges" width="27.027" height="27.027"/>
<rect x="189.189" y="324.324" shape-rendering="crispEdges" width="27.027" height="27.027"/>
<rect x="216.216" y="324.324" shape-rendering="crispEdges" width="27.027" height="27.027"/>
<rect x="243.243" y="324.324" shape-rendering="crispEdges" width="27.027" height="27.027"/>
<rect x="270.271" y="324.324" shape-rendering="crispEdges" width="27.027" height="27.027"/>
<rect x="432.433" y="324.324" shape-rendering="crispEdges" width="27.027" height="27.027"/>
<rect x="486.486" y="324.324" shape-rendering="crispEdges" width="27.027" height="27.027"/>
<rect x="513.514" y="324.324" shape-rendering="crispEdges" width="27.026" height="27.027"/>
<rect x="648.648" y="324.324" shape-rendering="crispEdges" width="27.027" height="27.027"/>
<rect x="702.703" y="324.324" shape-rendering="crispEdges" width="27.026" height="27.027"/>
<rect x="729.729" y="324.324" shape-rendering="crispEdges" width="27.027" height="27.027"/>
<rect x="756.757" y="324.324" shape-rendering="crispEdges" width="27.027" height="27.027"/>
<rect x="783.784" y="324.324" shape-rendering="crispEdges" width="27.026" height="27.027"/>
<rect x="810.811" y="324.324" shape-rendering="crispEdges" width="27.027" height="27.027"/>
<rect x="162.162" y="351.352" shape-rendering="crispEdges" width="27.027" height="27.026"/>
<rect x="189.189" y="351.352" shape-rendering="crispEdges" width="27.027" height="27.026"/>
<rect x="216.216" y="351.352" shape-rendering="crispEdges" width="27.027" height="27.026"/>
<rect x="243.243" y="351.352" shape-rendering="crispEdges" width="27.027" height="27.026"/>
<rect x="324.324" y="351.352" shape-rendering="crispEdges" width="27.027" height="27.026"/>
<rect x="351.352" y="351.352" shape-rendering="crispEdges" width="27.026" height="27.026"/>
<rect x="432.433" y="351.352" shape-rendering="crispEdges" width="27.027" height="27.026"/>
<rect x="513.514" y="351.352" shape-rendering="crispEdges" width="27.026" height="27.026"/>
<rect x="540.54" y="351.352" shape-rendering="crispEdges" width="27.027" height="27.026"/>
<rect x="621.622" y="351.352" shape-rendering="crispEdges" width="27.026" height="27.026"/>
<rect x="756.757" y="351.352" shape-rendering="crispEdges" width="27.027" height="27.026"/>
<rect x="783.784" y="351.352" shape-rendering="crispEdges" width="27.026" height="27.026"/>
<rect x="837.838" y="351.352" shape-rendering="crispEdges" width="27.027" height="27.026"/>
<rect x="135.135" y="378.378" shape-rendering="crispEdges" width="27.027" height="27.027"/>
<rect x="162.162" y="378.378" shape-rendering="crispEdges" width="27.027" height="27.027"/>
<rect x="243.243" y="378.378" shape-rendering="crispEdges" width="27.027" height="27.027"/>
<rect x="270.271" y="378.378" shape-rendering="crispEdges" width="27.027" height="27.027"/>
<rect x="297.298" y="378.378" shape-rendering="crispEdges" width="27.026" height="27.027"/>
<rect x="351.352" y="378.378" shape-rendering="crispEdges" width="27.026" height="27.027"/>
<rect x="378.378" y="378.378" shape-rendering="crispEdges" width="27.027" height="27.027"/>
<rect x="432.433" y="378.378" shape-rendering="crispEdges" width="27.027" height="27.027"/>
<rect x="513.514" y="378.378" shape-rendering="crispEdges" width="27.026" height="27.027"/>
<rect x="567.567" y="378.378" shape-rendering="crispEdges" width="27.027" height="27.027"/>
<rect x="783.784" y="378.378" shape-rendering="crispEdges" width="27.026" height="27.027"/>
<rect x="810.811" y="378.378" shape-rendering="crispEdges" width="27.027" height="27.027"/>
<rect x="189.189" y="405.405" shape-rendering="crispEdges" width="27.027" height="27.027"/>
<rect x="243.243" y="405.405" shape-rendering="crispEdges" width="27.027" height="27.027"/>
<rect x="324.324" y="405.405" shape-rendering="crispEdges" width="27.027" height="27.027"/>
<rect x="378.378" y="405.405" shape-rendering="crispEdges" width="27.027" height="27.027"/>
<rect x="405.405" y="405.405" shape-rendering="crispEdges" width="27.027" height="27.027"/>
<rect x="432.433" y="405.405" shape-rendering="crispEdges" width="27.027" height="27.027"/>
<rect x="486.486" y="405.405" shape-rendering="crispEdges" width="27.027" height="27.027"/>
<rect x="540.54" y="405.405" shape-rendering="crispEdges" width="27.027" height="27.027"/>
<rect x="621.622" y="405.405" shape-rendering="crispEdges" width="27.026" height="27.027"/>
<rect x="648.648" y="405.405" shape-rendering="crispEdges" width="27.027" height="27.027"/>
<rect x="675.676" y="405.405" shape-rendering="crispEdges" width="27.027" height="27.027"/>
<rect x="702.703" y="405.405" shape-rendering="crispEdges" width="27.026" height="27.027"/>
<rect x="729.729" y="405.405" shape-rendering="crispEdges" width="27.027" height="27.027"/>
<rect x="756.757" y="405.405" shape-rendering="crispEdges" width="27.027" height="27.027"/>
<rect x="783.784" y="405.405" shape-rendering="crispEdges" width="27.026" height="27.027"/>
<rect x="864.865" y="405.405" shape-rendering="crispEdges" width="27.026" height="27.027"/>
<rect x="108.108" y="432.433" shape-rendering="crispEdges" width="27.027" height="27.026"/>
<rect x="189.189" y="432.433" shape-rendering="crispEdges" width="27.027" height="27.026"/>
<rect x="216.216" y="432.433" shape-rendering="crispEdges" width="27.027" height="27.026"/>
<rect x="243.243" y="432.433" shape-rendering="crispEdges" width="27.027" height="27.026"/>
<rect x="270.271" y="432.433" shape-rendering="crispEdges" width="27.027" height="27.026"/>
<rect x="324.324" y="432.433" shape-rendering="crispEdges" width="27.027" height="27.026"/>
<rect x="351.352" y="432.433" shape-rendering="crispEdges" width="27.026" height="27.026"/>
<rect x="405.405" y="432.433" shape-rendering="crispEdges" width="27.027" height="27.026"/>
<rect x="432.433" y="432.433" shape-rendering="crispEdges" width="27.027" height="27.026"/>
<rect x="513.514" y="432.433" shape-rendering="crispEdges" width="27.026" height="27.026"/>
<rect x="567.567" y="432.433" shape-rendering="crispEdges" width="27.027" height="27.026"/>
<rect x="594.595" y="432.433" shape-rendering="crispEdges" width="27.027" height="27.026"/>
<rect x="702.703" y="432.433" shape-rendering="crispEdges" width="27.026" height="27.026"/>
<rect x="756.757" y="432.433" shape-rendering="crispEdges" width="27.027" height="27.026"/>
<rect x="108.108" y="459.459" shape-rendering="crispEdges" width="27.027" height="27.027"/>
<rect x="135.135" y="459.459" shape-rendering="crispEdges" width="27.027" height="27.027"/>
<rect x="162.162" y="459.459" shape-rendering="crispEdges" width="27.027" height="27.027"/>
<rect x="216.216" y="459.459" shape-rendering="crispEdges" width="27.027" height="27.027"/>
<rect x="243.243" y="459.459" shape-rendering="crispEdges" width="27.027" height="27.027"/>
<rect x="378.378" y="459.459" shape-rendering="crispEdges" width="27.027" height="27.027"/>
<rect x="405.405" y="459.459" shape-rendering="crispEdges" width="27.027" height="27.027"/>
<rect x="432.433" y="459.459" shape-rendering="crispEdges" width="27.027" height="27.027"/>
<rect x="459.46" y="459.459" shape-rendering="crispEdges" width="27.026" height="27.027"/>
<rect x="486.486" y="459.459" shape-rendering="crispEdges" width="27.027" height="27.027"/>
<rect x="621.622" y="459.459" shape-rendering="crispEdges" width="27.026" height="27.027"/>
<rect x="648.648" y="459.459" shape-rendering="crispEdges" width="27.027" height="27.027"/>
<rect x="675.676" y="459.459" shape-rendering="crispEdges" width="27.027" height="27.027"/>
<rect x="702.703" y="459.459" shape-rendering="crispEdges" width="27.026" height="27.027"/>
<rect x="756.757" y="459.459" shape-rendering="crispEdges" width="27.027" height="27.027"/>
<rect x="783.784" y="459.459" shape-rendering="crispEdges" width="27.026" height="27.027"/>
<rect x="837.838" y="459.459" shape-rendering="crispEdges" width="27.027" height="27.027"/>
<rect x="108.108" y="486.486" shape-rendering="crispEdges" width="27.027" height="27.027"/>
<rect x="135.135" y="486.486" shape-rendering="crispEdges" width="27.027" height="27.027"/>
<rect x="189.189" y="486.486" shape-rendering="crispEdges" width="27.027" height="27.027"/>
<rect x="243.243" y="486.486" shape-rendering="crispEdges" width="27.027" height="27.027"/>
<rect x="270.271" y="486.486" shape-rendering="crispEdges" width="27.027" height="27.027"/>
<rect x="324.324" y="486.486" shape-rendering="crispEdges" width="27.027" height="27.027"/>
<rect x="351.352" y="486.486" shape-rendering="crispEdges" width="27.026" height="27.027"/>
<rect x="405.405" y="486.486" shape-rendering="crispEdges" width="27.027" height="27.027"/>
<rect x="459.46" y="486.486" shape-rendering="crispEdges" width="27.026" height="27.027"/>
<rect x="486.486" y="486.486" shape-rendering="crispEdges" width="27.027" height="27.027"/>
<rect x="513.514" y="486.486" shape-rendering="crispEdges" width="27.026" height="27.027"/>
<rect x="540.54" y="486.486" shape-rendering="crispEdges" width="27.027" height="27.027"/>
<rect x="567.567" y="486.486" shape-rendering="crispEdges" width="27.027" height="27.027"/>
<rect x="621.622" y="486.486" shape-rendering="crispEdges" width="27.026" height="27.027"/>
<rect x="729.729" y="486.486" shape-rendering="crispEdges" width="27.027" height="27.027"/>
<rect x="783.784" y="486.486" shape-rendering="crispEdges" width="27.026" height="27.027"/>
<rect x="810.811" y="486.486" shape-rendering="crispEdges" width="27.027" height="27.027"/>
<rect x="837.838" y="486.486" shape-rendering="crispEdges" width="27.027" height="27.027"/>
<rect x="864.865" y="486.486" shape-rendering="crispEdges" width="27.026" height="27.027"/>
<rect x="108.108" y="513.514" shape-rendering="crispEdges" width="27.027" height="27.027"/>
<rect x="189.189" y="513.514" shape-rendering="crispEdges" width="27.027" height="27.027"/>
<rect x="216.216" y="513.514" shape-rendering="crispEdges" width="27.027" height="27.027"/>
<rect x="324.324" y="513.514" shape-rendering="crispEdges" width="27.027" height="27.027"/>
<rect x="432.433" y="513.514" shape-rendering="crispEdges" width="27.027" height="27.027"/>
<rect x="459.46" y="513.514" shape-rendering="crispEdges" width="27.026" height="27.027"/>
<rect x="540.54" y="513.514" shape-rendering="crispEdges" width="27.027" height="27.027"/>
<rect x="567.567" y="513.514" shape-rendering="crispEdges" width="27.027" height="27.027"/>
<rect x="594.595" y="513.514" shape-rendering="crispEdges" width="27.027" height="27.027"/>
<rect x="621.622" y="513.514" shape-rendering="crispEdges" width="27.026" height="27.027"/>
<rect x="648.648" y="513.514" shape-rendering="crispEdges" width="27.027" height="27.027"/>
<rect x="675.676" y="513.514" shape-rendering="crispEdges" width="27.027" height="27.027"/>
<rect x="702.703" y="513.514" shape-rendering="crispEdges" width="27.026" height="27.027"/>
<rect x="729.729" y="513.514" shape-rendering="crispEdges" width="27.027" height="27.027"/>
<rect x="756.757" y="513.514" shape-rendering="crispEdges" width="27.027" height="27.027"/>
<rect x="837.838" y="513.514" shape-rendering="crispEdges" width="27.027" height="27.027"/>
<rect x="864.865" y="513.514" shape-rendering="crispEdges" width="27.026" height="27.027"/>
<rect x="108.108" y="540.541" shape-rendering="crispEdges" width="27.027" height="27.026"/>
<rect x="189.189" y="540.541" shape-rendering="crispEdges" width="27.027" height="27.026"/>
<rect x="216.216" y="540.541" shape-rendering="crispEdges" width="27.027" height="27.026"/>
<rect x="270.271" y="540.541" shape-rendering="crispEdges" width="27.027" height="27.026"/>
<rect x="351.352" y="540.541" shape-rendering="crispEdges" width="27.026" height="27.026"/>
<rect x="378.378" y="540.541" shape-rendering="crispEdges" width="27.027" height="27.026"/>
<rect x="486.486" y="540.541" shape-rendering="crispEdges" width="27.027" height="27.026"/>
<rect x="513.514" y="540.541" shape-rendering="crispEdges" width="27.026" height="27.026"/>
<rect x="540.54" y="540.541" shape-rendering="crispEdges" width="27.027" height="27.026"/>
<rect x="594.595" y="540.541" shape-rendering="crispEdges" width="27.027" height="27.026"/>
<rect x="648.648" y="540.541" shape-rendering="crispEdges" width="27.027" height="27.026"/>
<rect x="729.729" y="540.541" shape-rendering="crispEdges" width="27.027" height="27.026"/>
<rect x="756.757" y="540.541" shape-rendering="crispEdges" width="27.027" height="27.026"/>
<rect x="108.108" y="567.567" shape-rendering="crispEdges" width="27.027" height="27.027"/>
<rect x="135.135" y="567.567" shape-rendering="crispEdges" width="27.027" height="27.027"/>
<rect x="162.162" y="567.567" shape-rendering="crispEdges" width="27.027" height="27.027"/>
<rect x="189.189" y="567.567" shape-rendering="crispEdges" width="27.027" height="27.027"/>
<rect x="216.216" y="567.567" shape-rendering="crispEdges" width="27.027" height="27.027"/>
<rect x="243.243" y="567.567" shape-rendering="crispEdges" width="27.027" height="27.027"/>
<rect x="297.298" y="567.567" shape-rendering="crispEdges" width="27.026" height="27.027"/>
<rect x="324.324" y="567.567" shape-rendering="crispEdges" width="27.027" height="27.027"/>
<rect x="351.352" y="567.567" shape-rendering="crispEdges" width="27.026" height="27.027"/>
<rect x="378.378" y="567.567" shape-rendering="crispEdges" width="27.027" height="27.027"/>
<rect x="405.405" y="567.567" shape-rendering="crispEdges" width="27.027" height="27.027"/>
<rect x="432.433" y="567.567" shape-rendering="crispEdges" width="27.027" height="27.027"/>
<rect x="513.514" y="567.567" shape-rendering="crispEdges" width="27.026" height="27.027"/>
<rect x="729.729" y="567.567" shape-rendering="crispEdges" width="27.027" height="27.027"/>
<rect x="756.757" y="567.567" shape-rendering="crispEdges" width="27.027" height="27.027"/>
<rect x="783.784" y="567.567" shape-rendering="crispEdges" width="27.026" height="27.027"/>
<rect x="108.108" y="594.595" shape-rendering="crispEdges" width="27.027" height="27.027"/>
<rect x="189.189" y="594.595" shape-rendering="crispEdges" width="27.027" height="27.027"/>
<rect x="216.216" y="594.595" shape-rendering="crispEdges" width="27.027" height="27.027"/>
<rect x="270.271" y="594.595" shape-rendering="crispEdges" width="27.027" height="27.027"/>
<rect x="324.324" y="594.595" shape-rendering="crispEdges" width="27.027" height="27.027"/>
<rect x="405.405" y="594.595" shape-rendering="crispEdges" width="27.027" height="27.027"/>
<rect x="432.433" y="594.595" shape-rendering="crispEdges" width="27.027" height="27.027"/>
<rect x="513.514" y="594.595" shape-rendering="crispEdges" width="27.026" height="27.027"/>
<rect x="567.567" y="594.595" shape-rendering="crispEdges" width="27.027" height="27.027"/>
<rect x="729.729" y="594.595" shape-rendering="crispEdges" width="27.027" height="27.027"/>
<rect x="783.784" y="594.595" shape-rendering="crispEdges" width="27.026" height="27.027"/>
<rect x="810.811" y="594.595" shape-rendering="crispEdges" width="27.027" height="27.027"/>
<rect x="837.838" y="594.595" shape-rendering="crispEdges" width="27.027" height="27.027"/>
<rect x="108.108" y="621.622" shape-rendering="crispEdges" width="27.027" height="27.026"/>
<rect x="378.378" y="621.622" shape-rendering="crispEdges" width="27.027" height="27.026"/>
<rect x="432.433" y="621.622" shape-rendering="crispEdges" width="27.027" height="27.026"/>
<rect x="486.486" y="621.622" shape-rendering="crispEdges" width="27.027" height="27.026"/>
<rect x="540.54" y="621.622" shape-rendering="crispEdges" width="27.027" height="27.026"/>
<rect x="567.567" y="621.622" shape-rendering="crispEdges" width="27.027" height="27.026"/>
<rect x="594.595" y="621.622" shape-rendering="crispEdges" width="27.027" height="27.026"/>
<rect x="621.622" y="621.622" shape-rendering="crispEdges" width="27.026" height="27.026"/>
<rect x="648.648" y="621.622" shape-rendering="crispEdges" width="27.027" height="27.026"/>
<rect x="675.676" y="621.622" shape-rendering="crispEdges" width="27.027" height="27.026"/>
<rect x="702.703" y="621.622" shape-rendering="crispEdges" width="27.026" height="27.026"/>
<rect x="756.757" y="621.622" shape-rendering="crispEdges" width="27.027" height="27.026"/>
<rect x="837.838" y="621.622" shape-rendering="crispEdges" width="27.027" height="27.026"/>
<rect x="864.865" y="621.622" shape-rendering="crispEdges" width="27.026" height="27.026"/>
<rect x="108.108" y="648.648" shape-rendering="crispEdges" width="27.027" height="27.027"/>
<rect x="189.189" y="648.648" shape-rendering="crispEdges" width="27.027" height="27.027"/>
<rect x="270.271" y="648.648" shape-rendering="crispEdges" width="27.027" height="27.027"/>
<rect x="405.405" y="648.648" shape-rendering="crispEdges" width="27.027" height="27.027"/>
<rect x="513.514" y="648.648" shape-rendering="crispEdges" width="27.026" height="27.027"/>
<rect x="540.54" y="648.648" shape-rendering="crispEdges" width="27.027" height="27.027"/>
<rect x="567.567" y="648.648" shape-rendering="crispEdges" width="27.027" height="27.027"/>
<rect x="648.648" y="648.648" shape-rendering="crispEdges" width="27.027" height="27.027"/>
<rect x="675.676" y="648.648" shape-rendering="crispEdges" width="27.027" height="27.027"/>
<rect x="702.703" y="648.648" shape-rendering="crispEdges" width="27.026" height="27.027"/>
<rect x="729.729" y="648.648" shape-rendering="crispEdges" width="27.027" height="27.027"/>
<rect x="756.757" y="648.648" shape-rendering="crispEdges" width="27.027" height="27.027"/>
<rect x="783.784" y="648.648" shape-rendering="crispEdges" width="27.026" height="27.027"/>
<rect x="810.811" y="648.648" shape-rendering="crispEdges" width="27.027" height="27.027"/>
<rect x="837.838" y="648.648" shape-rendering="crispEdges" width="27.027" height="27.027"/>
<rect x="324.324" y="675.676" shape-rendering="crispEdges" width="27.027" height="27.027"/>
<rect x="351.352" y="675.676" shape-rendering="crispEdges" width="27.026" height="27.027"/>
<rect x="459.46" y="675.676" shape-rendering="crispEdges" width="27.026" height="27.027"/>
<rect x="486.486" y="675.676" shape-rendering="crispEdges" width="27.027" height="27.027"/>
<rect x="594.595" y="675.676" shape-rendering="crispEdges" width="27.027" height="27.027"/>
<rect x="648.648" y="675.676" shape-rendering="crispEdges" width="27.027" height="27.027"/>
<rect x="756.757" y="675.676" shape-rendering="crispEdges" width="27.027" height="27.027"/>
<rect x="837.838" y="675.676" shape-rendering="crispEdges" width="27.027" height="27.027"/>
<rect x="351.352" y="702.703" shape-rendering="crispEdges" width="27.026" height="27.026"/>
<rect x="378.378" y="702.703" shape-rendering="crispEdges" width="27.027" height="27.026"/>
<rect x="405.405" y="702.703" shape-rendering="crispEdges" width="27.027" height="27.026"/>
<rect x="459.46" y="702.703" shape-rendering="crispEdges" width="27.026" height="27.026"/>
<rect x="486.486" y="702.703" shape-rendering="crispEdges" width="27.027" height="27.026"/>
<rect x="513.514" y="702.703" shape-rendering="crispEdges" width="27.026" height="27.026"/>
<rect x="567.567" y="702.703" shape-rendering="crispEdges" width="27.027" height="27.026"/>
<rect x="648.648" y="702.703" shape-rendering="crispEdges" width="27.027" height="27.026"/>
<rect x="702.703" y="702.703" shape-rendering="crispEdges" width="27.026" height="27.026"/>
<rect x="756.757" y="702.703" shape-rendering="crispEdges" width="27.027" height="27.026"/>
<rect x="783.784" y="702.703" shape-rendering="crispEdges" width="27.026" height="27.026"/>
<rect x="810.811" y="702.703" shape-rendering="crispEdges" width="27.027" height="27.026"/>
<rect x="324.324" y="729.729" shape-rendering="crispEdges" width="27.027" height="27.027"/>
<rect x="378.378" y="729.729" shape-rendering="crispEdges" width="27.027" height="27.027"/>
<rect x="459.46" y="729.729" shape-rendering="crispEdges" width="27.026" height="27.027"/>
<rect x="513.514" y="729.729" shape-rendering="crispEdges" width="27.026" height="27.027"/>
<rect x="540.54" y="729.729" shape-rendering="crispEdges" width="27.027" height="27.027"/>
<rect x="594.595" y="729.729" shape-rendering="crispEdges" width="27.027" height="27.027"/>
<rect x="621.622" y="729.729" shape-rendering="crispEdges" width="27.026" height="27.027"/>
<rect x="648.648" y="729.729" shape-rendering="crispEdges" width="27.027" height="27.027"/>
<rect x="756.757" y="729.729" shape-rendering="crispEdges" width="27.027" height="27.027"/>
<rect x="810.811" y="729.729" shape-rendering="crispEdges" width="27.027" height="27.027"/>
<rect x="837.838" y="729.729" shape-rendering="crispEdges" width="27.027" height="27.027"/>
<rect x="864.865" y="729.729" shape-rendering="crispEdges" width="27.026" height="27.027"/>
<rect x="324.324" y="756.757" shape-rendering="crispEdges" width="27.027" height="27.027"/>
<rect x="351.352" y="756.757" shape-rendering="crispEdges" width="27.026" height="27.027"/>
<rect x="378.378" y="756.757" shape-rendering="crispEdges" width="27.027" height="27.027"/>
<rect x="405.405" y="756.757" shape-rendering="crispEdges" width="27.027" height="27.027"/>
<rect x="486.486" y="756.757" shape-rendering="crispEdges" width="27.027" height="27.027"/>
<rect x="513.514" y="756.757" shape-rendering="crispEdges" width="27.026" height="27.027"/>
<rect x="540.54" y="756.757" shape-rendering="crispEdges" width="27.027" height="27.027"/>
<rect x="648.648" y="756.757" shape-rendering="crispEdges" width="27.027" height="27.027"/>
<rect x="675.676" y="756.757" shape-rendering="crispEdges" width="27.027" height="27.027"/>
<rect x="702.703" y="756.757" shape-rendering="crispEdges" width="27.026" height="27.027"/>
<rect x="729.729" y="756.757" shape-rendering="crispEdges" width="27.027" height="27.027"/>
<rect x="756.757" y="756.757" shape-rendering="crispEdges" width="27.027" height="27.027"/>
<rect x="810.811" y="756.757" shape-rendering="crispEdges" width="27.027" height="27.027"/>
<rect x="837.838" y="756.757" shape-rendering="crispEdges" width="27.027" height="27.027"/>
<rect x="864.865" y="756.757" shape-rendering="crispEdges" width="27.026" height="27.027"/>
<rect x="324.324" y="783.784" shape-rendering="crispEdges" width="27.027" height="27.026"/>
<rect x="351.352" y="783.784" shape-rendering="crispEdges" width="27.026" height="27.026"/>
<rect x="405.405" y="783.784" shape-rendering="crispEdges" width="27.027" height="27.026"/>
<rect x="432.433" y="783.784" shape-rendering="crispEdges" width="27.027" height="27.026"/>
<rect x="459.46" y="783.784" shape-rendering="crispEdges" width="27.026" height="27.026"/>
<rect x="648.648" y="783.784" shape-rendering="crispEdges" width="27.027" height="27.026"/>
<rect x="702.703" y="783.784" shape-rendering="crispEdges" width="27.026" height="27.026"/>
<rect x="729.729" y="783.784" shape-rendering="crispEdges" width="27.027" height="27.026"/>
<rect x="324.324" y="810.811" shape-rendering="crispEdges" width="27.027" height="27.027"/>
<rect x="378.378" y="810.811" shape-rendering="crispEdges" width="27.027" height="27.027"/>
<rect x="486.486" y="810.811" shape-rendering="crispEdges" width="27.027" height="27.027"/>
<rect x="513.514" y="810.811" shape-rendering="crispEdges" width="27.026" height="27.027"/>
<rect x="540.54" y="810.811" shape-rendering="crispEdges" width="27.027" height="27.027"/>
<rect x="567.567" y="810.811" shape-rendering="crispEdges" width="27.027" height="27.027"/>
<rect x="621.622" y="810.811" shape-rendering="crispEdges" width="27.026" height="27.027"/>
<rect x="675.676" y="810.811" shape-rendering="crispEdges" width="27.027" height="27.027"/>
<rect x="729.729" y="810.811" shape-rendering="crispEdges" width="27.027" height="27.027"/>
<rect x="810.811" y="810.811" shape-rendering="crispEdges" width="27.027" height="27.027"/>
<rect x="837.838" y="810.811" shape-rendering="crispEdges" width="27.027" height="27.027"/>
<rect x="405.405" y="837.838" shape-rendering="crispEdges" width="27.027" height="27.027"/>
<rect x="540.54" y="837.838" shape-rendering="crispEdges" width="27.027" height="27.027"/>
<rect x="648.648" y="837.838" shape-rendering="crispEdges" width="27.027" height="27.027"/>
<rect x="675.676" y="837.838" shape-rendering="crispEdges" width="27.027" height="27.027"/>
<rect x="783.784" y="837.838" shape-rendering="crispEdges" width="27.026" height="27.027"/>
<rect x="810.811" y="837.838" shape-rendering="crispEdges" width="27.027" height="27.027"/>
<rect x="864.865" y="837.838" shape-rendering="crispEdges" width="27.026" height="27.027"/>
<rect x="324.324" y="864.865" shape-rendering="crispEdges" width="27.027" height="27.026"/>
<rect x="378.378" y="864.865" shape-rendering="crispEdges" width="27.027" height="27.026"/>
<rect x="432.433" y="864.865" shape-rendering="crispEdges" width="27.027" height="27.026"/>
<rect x="459.46" y="864.865" shape-rendering="crispEdges" width="27.026" height="27.026"/>
<rect x="486.486" y="864.865" shape-rendering="crispEdges" width="27.027" height="27.026"/>
<rect x="513.514" y="864.865" shape-rendering="crispEdges" width="27.026" height="27.026"/>
<rect x="540.54" y="864.865" shape-rendering="crispEdges" width="27.027" height="27.026"/>
<rect x="567.567" y="864.865" shape-rendering="crispEdges" width="27.027" height="27.026"/>
<rect x="594.595" y="864.865" shape-rendering="crispEdges" width="27.027" height="27.026"/>
<rect x="621.622" y="864.865" shape-rendering="crispEdges" width="27.026" height="27.026"/>
<rect x="648.648" y="864.865" shape-rendering="crispEdges" width="27.027" height="27.026"/>
<rect x="675.676" y="864.865" shape-rendering="crispEdges" width="27.027" height="27.026"/>
<rect x="702.703" y="864.865" shape-rendering="crispEdges" width="27.026" height="27.026"/>
<rect x="756.757" y="864.865" shape-rendering="crispEdges" width="27.027" height="27.026"/>
<rect x="783.784" y="864.865" shape-rendering="crispEdges" width="27.026" height="27.026"/>
<rect x="810.811" y="864.865" shape-rendering="crispEdges" width="27.027" height="27.026"/>
<rect x="162.162" y="162.162" shape-rendering="crispEdges" width="81.081" height="81.081"/>
<rect x="756.757" y="162.162" shape-rendering="crispEdges" width="81.081" height="81.081"/>
<rect x="162.162" y="756.757" shape-rendering="crispEdges" width="81.081" height="81.081"/>
<path d="M108.108,108.108v189.188h189.19V108.108H108.108z M270.271,270.271H135.135V135.135h135.135V270.271z"/>
<path d="M108.108,702.703v189.188h189.19V702.703H108.108z M270.271,864.865H135.135V729.729h135.135V864.865z"/>
<path d="M702.702,108.108v189.188h189.19V108.108H702.702z M864.865,270.271H729.729V135.135h135.136V270.271z"/>
</svg>
