<?xml version="1.0" encoding="utf-8"?>
<!-- Generator: Adobe Illustrator 15.0.0, SVG Export Plug-In . SVG Version: 6.00 Build 0)  -->
<!DOCTYPE svg PUBLIC "-//W3C//DTD SVG 1.1//EN" "http://www.w3.org/Graphics/SVG/1.1/DTD/svg11.dtd">
<svg version="1.1" id="Layer_1" xmlns="http://www.w3.org/2000/svg" xmlns:xlink="http://www.w3.org/1999/xlink" x="0px" y="0px"
	 width="46.645px" height="6.53px" viewBox="0 0 46.645 6.53" enable-background="new 0 0 46.645 6.53" xml:space="preserve">
<g>
	<path fill="#FBF4B5" d="M41.146,0.7h2.707c0.462,0,0.889,0.375,0.953,0.836l0.381,2.707c0.064,0.461-0.257,0.836-0.719,0.836
		h-2.707c-0.462,0-0.889-0.375-0.954-0.836l-0.38-2.706C40.361,1.075,40.684,0.7,41.146,0.7z M41.625,4.113
		c0.011,0.072,0.076,0.13,0.147,0.13h0.577c0.072,0,0.122-0.058,0.112-0.13l-0.084-0.596c-0.039-0.28,0.145-0.519,0.424-0.529
		c0.292-0.01,0.567,0.225,0.608,0.517l0.085,0.608c0.011,0.072,0.076,0.13,0.148,0.13h0.576c0.072,0,0.122-0.058,0.112-0.13
		L44.133,2.7c-0.01-0.072-0.076-0.13-0.147-0.13h-2.447c-0.071,0-0.121,0.058-0.111,0.13L41.625,4.113z"/>
	<path fill="#FBF4B5" d="M36.226,0.7h0.775c0.302,0,0.581,0.245,0.624,0.547l0.423,3.007c0.01,0.072,0.076,0.13,0.147,0.13h0.38
		c0.071,0,0.121-0.058,0.111-0.13l-0.423-3.007C38.222,0.945,38.433,0.7,38.734,0.7h0.775c0.303,0,0.582,0.245,0.624,0.547
		l0.421,2.996c0.065,0.461-0.257,0.836-0.719,0.836H37.13c-0.462,0-0.89-0.375-0.954-0.836l-0.421-2.996
		C35.712,0.945,35.923,0.7,36.226,0.7z"/>
	<path fill="#FBF4B5" d="M31.884,0.7h2.706c0.462,0,0.889,0.375,0.954,0.836l0.38,2.707c0.065,0.461-0.257,0.836-0.719,0.836h-3.124
		c-0.231,0-0.445-0.188-0.478-0.418c-0.032-0.231,0.128-0.418,0.359-0.418h2.736c0.071,0,0.122-0.058,0.111-0.13l-0.022-0.159
		c-0.01-0.071-0.076-0.129-0.147-0.129h-2.736c-0.231,0-0.444-0.188-0.477-0.418c-0.033-0.231,0.128-0.418,0.359-0.418h2.736
		c0.071,0,0.121-0.058,0.111-0.129L34.612,2.7c-0.01-0.072-0.076-0.13-0.147-0.13h-3.025c-0.071,0-0.138-0.058-0.147-0.129
		l-0.127-0.904C31.1,1.075,31.422,0.7,31.884,0.7z"/>
	<path fill="#FBF4B5" d="M27.309,0.7h2.706c0.462,0,0.889,0.375,0.954,0.836l0.204,1.452c0.064,0.462-0.257,0.837-0.719,0.837
		h-2.318c-0.071,0-0.121,0.058-0.111,0.129l0.022,0.159c0.01,0.072,0.076,0.13,0.147,0.13h2.736c0.231,0,0.444,0.187,0.478,0.418
		c0.032,0.23-0.129,0.418-0.36,0.418h-3.124c-0.462,0-0.89-0.375-0.954-0.836l-0.059-0.418c-0.065-0.462,0.257-0.837,0.719-0.837
		h2.577c0.071,0,0.121-0.058,0.111-0.129L30.296,2.7c-0.01-0.072-0.076-0.13-0.147-0.13h-3.284c-0.071,0-0.138-0.058-0.147-0.129
		L26.59,1.537C26.524,1.075,26.847,0.7,27.309,0.7z"/>
	<path fill="#FBF4B5" d="M22.84,0.7h2.706c0.462,0,0.889,0.375,0.954,0.836l0.127,0.904c0.01,0.071-0.04,0.129-0.111,0.129h-1.383
		c-0.071,0-0.121,0.058-0.111,0.13l0.258,1.833c0.042,0.302-0.169,0.547-0.472,0.547c-0.302,0-0.581-0.245-0.624-0.547L23.926,2.7
		c-0.01-0.072-0.076-0.13-0.147-0.13h-1.383c-0.072,0-0.138-0.058-0.148-0.129l-0.127-0.904C22.056,1.075,22.378,0.7,22.84,0.7z"/>
	<path fill="#FBF4B5" d="M21.163,5.08c-0.303,0-0.582-0.245-0.625-0.547l-0.461-3.285C20.034,0.945,20.245,0.7,20.548,0.7h0.775
		c0.302,0,0.581,0.245,0.623,0.547l0.462,3.285c0.042,0.302-0.168,0.547-0.47,0.547H21.163z"/>
	<path fill="#FBF4B5" d="M16.19,0.7h2.706c0.462,0,0.889,0.375,0.954,0.836l0.38,2.707c0.065,0.461-0.257,0.836-0.719,0.836h-2.706
		c-0.463,0-0.89-0.375-0.955-0.836l-0.379-2.706C15.405,1.075,15.728,0.7,16.19,0.7z M19.117,4.113L18.919,2.7
		c-0.01-0.072-0.076-0.13-0.148-0.13h-1.93c-0.072,0-0.121,0.058-0.111,0.13l0.198,1.413c0.011,0.072,0.076,0.13,0.147,0.13h1.931
		C19.077,4.243,19.128,4.185,19.117,4.113z"/>
	<path fill="#FBF4B5" d="M10.276,0.701c0.292-0.011,0.566,0.225,0.607,0.517l0.417,2.967c0.011,0.072,0.077,0.13,0.148,0.13h0.38
		c0.071,0,0.121-0.058,0.111-0.13l-0.418-2.967C11.483,0.932,11.683,0.7,11.968,0.7h2.297c0.463,0,0.889,0.375,0.954,0.836
		l0.421,2.996c0.043,0.302-0.168,0.547-0.471,0.547h-0.885c-0.303,0-0.582-0.245-0.625-0.547l-0.28-1.999
		c-0.021-0.06-0.079-0.105-0.143-0.105h-0.38c-0.071,0-0.121,0.058-0.111,0.129l0.281,2.003c0.041,0.293-0.167,0.527-0.463,0.518
		l0,0h-1.334c-0.462,0-0.889-0.375-0.953-0.836L9.853,1.229C9.813,0.949,9.997,0.71,10.276,0.701z"/>
	<path fill="#FBF4B5" d="M6.003,0.7h2.706c0.462,0,0.89,0.375,0.954,0.836l0.204,1.452c0.065,0.462-0.257,0.837-0.72,0.837H6.829
		c-0.07,0-0.121,0.058-0.111,0.129L6.74,4.113c0.011,0.072,0.077,0.13,0.147,0.13h2.736c0.232,0,0.445,0.187,0.479,0.418
		c0.032,0.23-0.129,0.418-0.36,0.418H6.618c-0.462,0-0.89-0.375-0.955-0.836L5.604,3.825C5.54,3.363,5.862,2.988,6.324,2.988H8.9
		c0.072,0,0.122-0.058,0.112-0.129L8.989,2.7c-0.01-0.072-0.075-0.13-0.147-0.13H5.559c-0.071,0-0.138-0.058-0.147-0.129
		L5.284,1.537C5.218,1.075,5.541,0.7,6.003,0.7z"/>
	<path fill="#FBF4B5" d="M1.428,0.701h2.706c0.462,0,0.89,0.375,0.955,0.836l0.027,0.197c0.064,0.462-0.258,0.837-0.72,0.837H1.819
		c-0.071,0-0.121,0.058-0.11,0.129L1.73,2.859c0.011,0.072,0.076,0.13,0.147,0.13h2.159c0.231,0,0.444,0.187,0.478,0.418
		c0.031,0.231-0.129,0.418-0.359,0.418H1.867c-0.462,0-0.89-0.375-0.955-0.836L0.708,1.537C0.644,1.075,0.966,0.701,1.428,0.701z
		 M3.069,4.243h1.145c0.23,0,0.443,0.188,0.477,0.418C4.723,4.892,4.563,5.08,4.331,5.08H3.187c-0.23,0-0.444-0.188-0.477-0.418
		C2.678,4.431,2.839,4.243,3.069,4.243z"/>
</g>
</svg>
