<?xml version="1.0" encoding="utf-8"?>
<!-- Generator: Adobe Illustrator 15.0.0, SVG Export Plug-In . SVG Version: 6.00 Build 0)  -->
<!DOCTYPE svg PUBLIC "-//W3C//DTD SVG 1.1//EN" "http://www.w3.org/Graphics/SVG/1.1/DTD/svg11.dtd">
<svg version="1.1" id="Layer_1" xmlns="http://www.w3.org/2000/svg" xmlns:xlink="http://www.w3.org/1999/xlink" x="0px" y="0px"
	 width="46.645px" height="6.53px" viewBox="0 0 46.645 6.53" enable-background="new 0 0 46.645 6.53" xml:space="preserve">
<g>
	<path fill="#FBF4B5" d="M41.146,0.7h2.707c0.462,0,0.889,0.375,0.953,0.836l0.381,2.707c0.064,0.461-0.257,0.836-0.719,0.836
		h-2.707c-0.462,0-0.889-0.375-0.954-0.836l-0.38-2.706C40.361,1.075,40.684,0.7,41.146,0.7z M41.625,4.113
		c0.011,0.072,0.076,0.13,0.147,0.13h0.577c0.072,0,0.122-0.058,0.112-0.13l-0.084-0.596c-0.039-0.28,0.145-0.519,0.424-0.529
		c0.292-0.01,0.567,0.225,0.608,0.517l0.085,0.608c0.011,0.072,0.076,0.13,0.148,0.13h0.576c0.072,0,0.122-0.058,0.112-0.13
		L44.133,2.7c-0.01-0.072-0.076-0.13-0.147-0.13h-2.447c-0.071,0-0.121,0.058-0.111,0.13L41.625,4.113z"/>
	<path fill="#FBF4B5" d="M36.226,0.7h0.775c0.302,0,0.581,0.245,0.624,0.547l0.423,3.007c0.01,0.072,0.076,0.13,0.147,0.13h0.38
		c0.071,0,0.121-0.058,0.111-0.13l-0.423-3.007C38.222,0.945,38.433,0.7,38.734,0.7h0.775c0.303,0,0.582,0.245,0.624,0.547
		l0.421,2.996c0.065,0.461-0.257,0.836-0.719,0.836H37.13c-0.462,0-0.89-0.375-0.954-0.836l-0.421-2.996
		C35.712,0.945,35.923,0.7,36.226,0.7z"/>
	<path fill="#FBF4B5" d="M31.884,0.7h2.706c0.462,0,0.889,0.375,0.954,0.836l0.38,2.707c0.065,0.461-0.257,0.836-0.719,0.836h-3.124
		c-0.231,0-0.445-0.188-0.478-0.418c-0.032-0.231,0.128-0.418,0.359-0.418h2.736c0.071,0,0.122-0.058,0.111-0.13l-0.022-0.159
		c-0.01-0.071-0.076-0.129-0.147-0.129h-2.736c-0.231,0-0.444-0.188-0.477-0.418c-0.033-0.231,0.128-0.418,0.359-0.418h2.736
		c0.071,0,0.121-0.058,0.111-0.129L34.612,2.7c-0.01-0.072-0.076-0.13-0.147-0.13h-3.025c-0.071,0-0.138-0.058-0.147-0.129
		l-0.127-0.904C31.1,1.075,31.422,0.7,31.884,0.7z"/>
	<path fill="#FBF4B5" d="M27.309,0.7h2.706c0.462,0,0.889,0.375,0.954,0.836l0.204,1.452c0.064,0.462-0.257,0.837-0.719,0.837
		h-2.318c-0.071,0-0.121,0.058-0.111,0.129l0.022,0.159c0.01,0.072,0.076,0.13,0.147,0.13h2.736c0.231,0,0.444,0.187,0.478,0.418
		c0.032,0.23-0.129,0.418-0.36,0.418h-3.124c-0.462,0-0.89-0.375-0.954-0.836l-0.059-0.418c-0.065-0.462,0.257-0.837,0.719-0.837
		h2.577c0.071,0,0.121-0.058,0.111-0.129L30.296,2.7c-0.01-0.072-0.076-0.13-0.147-0.13h-3.284c-0.071,0-0.138-0.058-0.147-0.129
		L26.59,1.537C26.524,1.075,26.847,0.7,27.309,0.7z"/>
	<path fill="#FBF4B5" d="M22.84,0.7h2.706c0.462,0,0.889,0.375,0.954,0.836l0.127,0.904c0.01,0.071-0.04,0.129-0.111,0.129h-1.383
		c-0.071,0-0.121,0.058-0.111,0.13l0.258,1.833c0.042,0.302-0.169,0.547-0.472,0.547c-0.302,0-0.581-0.245-0.624-0.547L23.926,2.7
		c-0.01-0.072-0.076-0.13-0.147-0.13h-1.383c-0.072,0-0.138-0.058-0.148-0.129l-0.127-0.904C22.056,1.075,22.378,0.7,22.84,0.7z"/>
	<path fill="#FBF4B5" d="M21.163,5.08c-0.303,0-0.582-0.245-0.625-0.547l-0.461-3.285C20.034,0.945,20.245,0.7,20.548,0.7h0.775
		c0.302,0,0.581,0.245,0.623,0.547l0.462,3.285c0.042,0.302-0.168,0.547-0.47,0.547H21.163z"/>
	<path fill="#FBF4B5" d="M16.19,0.7h2.706c0.462,0,0.889,0.375,0.954,0.836l0.38,2.707c0.065,0.461-0.257,0.836-0.719,0.836h-2.706
		c-0.463,0-0.89-0.375-0.955-0.836l-0.379-2.706C15.405,1.075,15.728,0.7,16.19,0.7z M19.117,4.113L18.919,2.7
		c-0.01-0.072-0.076-0.13-0.148-0.13h-1.93c-0.072,0-0.121,0.058-0.111,0.13l0.198,1.413c0.011,0.072,0.076,0.13,0.147,0.13h1.931
		C19.077,4.243,19.128,4.185,19.117,4.113z"/>
	<path fill="#FBF4B5" d="M10.276,0.701c0.292-0.011,0.566,0.225,0.607,0.517l0.417,2.967c0.011,0.072,0.077,0.13,0.148,0.13h0.38
		c0.071,0,0.121-0.058,0.111-0.13l-0.418-2.967C11.483,0.932,11.683,0.7,11.968,0.7h2.297c0.463,0,0.889,0.375,0.954,0.836
		l0.421,2.996c0.043,0.302-0.168,0.547-0.471,0.547h-0.885c-0.303,0-0.582-0.245-0.625-0.547l-0.28-1.999
		c-0.021-0.06-0.079-0.105-0.143-0.105h-0.38c-0.071,0-0.121,0.058-0.111,0.129l0.281,2.003c0.041,0.293-0.167,0.527-0.463,0.518
		l0,0h-1.334c-0.462,0-0.889-0.375-0.953-0.836L9.853,1.229C9.813,0.949,9.997,0.71,10.276,0.701z"/>
	<path fill="#FBF4B5" d="M6.003,0.7h2.706c0.462,0,0.89,0.375,0.954,0.836l0.204,1.452c0.065,0.462-0.257,0.837-0.72,0.837H6.829
		c-0.07,0-0.121,0.058-0.111,0.129L6.74,4.113c0.011,0.072,0.077,0.13,0.147,0.13h2.736c0.232,0,0.445,0.187,0.479,0.418
		c0.032,0.23-0.129,0.418-0.36,0.418H6.618c-0.462,0-0.89-0.375-0.955-0.836L5.604,3.825C5.54,3.363,5.862,2.988,6.324,2.988H8.9
		c0.072,0,0.122-0.058,0.112-0.129L8.989,2.7c-0.01-0.072-0.075-0.13-0.147-0.13H5.559c-0.071,0-0.138-0.058-0.147-0.129
		L5.284,1.537C5.218,1.075,5.541,0.7,6.003,0.7z"/>
	<path fill="#FBF4B5" d="M1.428,0.701h2.706c0.462,0,0.89,0.375,0.955,0.836l0.027,0.197c0.064,0.462-0.258,0.837-0.72,0.837H1.819
		c-0.071,0-0.121,0.058-0.11,0.129L1.73,2.859c0.011,0.072,0.076,0.13,0.147,0.13h2.159c0.231,0,0.444,0.187,0.478,0.418
		c0.031,0.231-0.129,0.418-0.359,0.418H1.867c-0.462,0-0.89-0.375-0.955-0.836L0.708,1.537C0.644,1.075,0.966,0.701,1.428,0.701z
		 M3.069,4.243h1.145c0.23,0,0.443,0.188,0.477,0.418C4.723,4.892,4.563,5.08,4.331,5.08H3.187c-0.23,0-0.444-0.188-0.477-0.418
		C2.678,4.431,2.839,4.243,3.069,4.243z"/>
</g>
<g>
	<path fill="#FFFFFF" d="M41.538,2.57h2.447c0.071,0,0.138,0.058,0.147,0.13l0.199,1.413c0.01,0.072-0.04,0.13-0.112,0.13h-0.576
		c-0.072,0-0.138-0.058-0.148-0.13L43.41,3.505c-0.041-0.292-0.316-0.527-0.608-0.517c-0.279,0.01-0.463,0.249-0.424,0.529
		l0.084,0.596c0.01,0.072-0.04,0.13-0.112,0.13h-0.577c-0.071,0-0.137-0.058-0.147-0.13L41.427,2.7
		C41.417,2.628,41.467,2.57,41.538,2.57z"/>
	<path fill="#FFFFFF" d="M0.015,1.633l0.204,1.453c0.06,0.42,0.286,0.79,0.602,1.05c0.074,0.092,0.409,0.424,0.5,0.5
		c0.223,0.277,0.53,0.479,0.873,0.574c0.083,0.131,0.718,0.76,0.815,0.83C3.229,6.33,3.563,6.53,3.937,6.53h1.145
		c0.313,0,0.605-0.132,0.805-0.361C5.962,6.082,6.007,5.976,6.049,5.87c0.015,0.013,0.029,0.023,0.044,0.036
		C6.403,6.282,6.866,6.53,7.368,6.53h3.124c0.241,0,0.458-0.099,0.644-0.241c0.25,0.152,0.541,0.241,0.844,0.241h1.334
		c0.333-0.001,0.631-0.124,0.844-0.341C14.396,6.4,14.706,6.53,15.034,6.53h0.885c0.277,0,0.527-0.114,0.734-0.282
		c0.264,0.176,0.574,0.282,0.902,0.282h2.706c0.319,0,0.622-0.102,0.866-0.283c0.225,0.171,0.494,0.283,0.785,0.283h0.775
		c0.346,0,0.671-0.146,0.892-0.399c0.191-0.22,0.27-0.509,0.263-0.805c0.06,0.065,0.595,0.605,0.691,0.678
		c0.248,0.311,0.615,0.526,1.024,0.526c0.347,0,0.672-0.146,0.893-0.399c0.21-0.242,0.3-0.564,0.269-0.893
		c0.051,0.055,0.567,0.578,0.659,0.653c0.311,0.388,0.786,0.639,1.296,0.639h3.124c0.186,0,0.355-0.059,0.512-0.144
		c0.161,0.083,0.334,0.144,0.521,0.144h3.124c0.352,0,0.68-0.128,0.936-0.347c0.281,0.214,0.625,0.347,0.989,0.347h2.706
		c0.352,0,0.68-0.128,0.936-0.347c0.281,0.214,0.625,0.347,0.989,0.347h2.707c0.421,0,0.815-0.177,1.082-0.483
		c0.27-0.309,0.389-0.729,0.33-1.15l-0.381-2.707c-0.059-0.42-0.285-0.79-0.601-1.051c-0.074-0.092-0.409-0.424-0.5-0.5
		C44.837,0.251,44.362,0,43.853,0h-2.707c-0.315,0-0.616,0.099-0.859,0.278C40.063,0.111,39.797,0,39.51,0h-0.775
		c-0.323,0-0.628,0.127-0.847,0.351C37.648,0.134,37.334,0,37.001,0h-0.775c-0.277,0-0.526,0.115-0.733,0.283
		C35.228,0.107,34.917,0,34.59,0h-2.706c-0.34,0-0.659,0.119-0.911,0.324C30.697,0.124,30.366,0,30.015,0h-2.706
		c-0.317,0-0.619,0.1-0.863,0.281C26.182,0.106,25.872,0,25.546,0H22.84c-0.292,0-0.566,0.089-0.799,0.242
		C21.829,0.1,21.587,0,21.323,0h-0.775c-0.281,0-0.533,0.117-0.742,0.289C19.54,0.109,19.228,0,18.896,0H16.19
		c-0.352,0-0.68,0.128-0.936,0.347C14.973,0.133,14.63,0,14.265,0h-2.297c-0.312,0-0.605,0.121-0.818,0.333
		C10.918,0.127,10.615,0,10.296,0C10.013,0.01,9.784,0.118,9.593,0.27C9.333,0.101,9.028,0,8.709,0H6.003
		c-0.34,0-0.658,0.119-0.911,0.324C4.815,0.124,4.485,0,4.134,0H1.428C1.006,0,0.611,0.177,0.345,0.483
		C0.076,0.792-0.044,1.211,0.015,1.633z M40.427,1.537C40.361,1.075,40.684,0.7,41.146,0.7h2.707c0.462,0,0.889,0.375,0.953,0.836
		l0.381,2.707c0.064,0.461-0.257,0.836-0.719,0.836h-2.707c-0.462,0-0.889-0.375-0.954-0.836L40.427,1.537z M35.755,1.248
		C35.712,0.945,35.923,0.7,36.226,0.7h0.775c0.302,0,0.581,0.245,0.624,0.547l0.423,3.007c0.01,0.072,0.076,0.13,0.147,0.13h0.38
		c0.071,0,0.121-0.058,0.111-0.13l-0.423-3.007C38.222,0.945,38.433,0.7,38.734,0.7h0.775c0.303,0,0.582,0.245,0.624,0.547
		l0.421,2.996c0.065,0.461-0.257,0.836-0.719,0.836H37.13c-0.462,0-0.89-0.375-0.954-0.836L35.755,1.248z M31.428,3.407
		c-0.033-0.231,0.128-0.418,0.359-0.418h2.736c0.071,0,0.121-0.058,0.111-0.129L34.612,2.7c-0.01-0.072-0.076-0.13-0.147-0.13
		h-3.025c-0.071,0-0.138-0.058-0.147-0.129l-0.127-0.904C31.1,1.075,31.422,0.7,31.884,0.7h2.706c0.462,0,0.889,0.375,0.954,0.836
		l0.38,2.707c0.065,0.461-0.257,0.836-0.719,0.836h-3.124c-0.231,0-0.445-0.188-0.478-0.418c-0.032-0.231,0.128-0.418,0.359-0.418
		h2.736c0.071,0,0.122-0.058,0.111-0.13l-0.022-0.159c-0.01-0.071-0.076-0.129-0.147-0.129h-2.736
		C31.673,3.825,31.46,3.638,31.428,3.407z M26.717,2.441L26.59,1.537C26.524,1.075,26.847,0.7,27.309,0.7h2.706
		c0.462,0,0.889,0.375,0.954,0.836l0.204,1.452c0.064,0.462-0.257,0.837-0.719,0.837h-2.318c-0.071,0-0.121,0.058-0.111,0.129
		l0.022,0.159c0.01,0.072,0.076,0.13,0.147,0.13h2.736c0.231,0,0.444,0.187,0.478,0.418c0.032,0.23-0.129,0.418-0.36,0.418h-3.124
		c-0.462,0-0.89-0.375-0.954-0.836l-0.059-0.418c-0.065-0.462,0.257-0.837,0.719-0.837h2.577c0.071,0,0.121-0.058,0.111-0.129
		L30.296,2.7c-0.01-0.072-0.076-0.13-0.147-0.13h-3.284C26.793,2.57,26.727,2.512,26.717,2.441z M22.396,2.57
		c-0.072,0-0.138-0.058-0.148-0.129l-0.127-0.904C22.056,1.075,22.378,0.7,22.84,0.7h2.706c0.462,0,0.889,0.375,0.954,0.836
		l0.127,0.904c0.01,0.071-0.04,0.129-0.111,0.129h-1.383c-0.071,0-0.121,0.058-0.111,0.13l0.258,1.833
		c0.042,0.302-0.169,0.547-0.472,0.547c-0.302,0-0.581-0.245-0.624-0.547L23.926,2.7c-0.01-0.072-0.076-0.13-0.147-0.13H22.396z
		 M20.077,1.248C20.034,0.945,20.245,0.7,20.548,0.7h0.775c0.302,0,0.581,0.245,0.623,0.547l0.462,3.285
		c0.042,0.302-0.168,0.547-0.47,0.547h-0.775c-0.303,0-0.582-0.245-0.625-0.547L20.077,1.248z M15.851,4.243l-0.379-2.706
		C15.405,1.075,15.728,0.7,16.19,0.7h2.706c0.462,0,0.889,0.375,0.954,0.836l0.38,2.707c0.065,0.461-0.257,0.836-0.719,0.836h-2.706
		C16.343,5.08,15.916,4.705,15.851,4.243z M10.276,4.243L9.853,1.229c-0.039-0.28,0.145-0.519,0.424-0.529
		c0.292-0.011,0.566,0.225,0.607,0.517l0.417,2.967c0.011,0.072,0.077,0.13,0.148,0.13h0.38c0.071,0,0.121-0.058,0.111-0.13
		l-0.418-2.967C11.483,0.932,11.683,0.7,11.968,0.7h2.297c0.463,0,0.889,0.375,0.954,0.836l0.421,2.996
		c0.043,0.302-0.168,0.547-0.471,0.547h-0.885c-0.303,0-0.582-0.245-0.625-0.547l-0.28-1.999c-0.021-0.06-0.079-0.105-0.143-0.105
		h-0.38c-0.071,0-0.121,0.058-0.111,0.129l0.281,2.003c0.041,0.293-0.167,0.527-0.463,0.518l0,0h-1.334
		C10.768,5.08,10.341,4.705,10.276,4.243z M5.284,1.537C5.218,1.075,5.541,0.7,6.003,0.7h2.706c0.462,0,0.89,0.375,0.954,0.836
		l0.204,1.452c0.065,0.462-0.257,0.837-0.72,0.837H6.829c-0.07,0-0.121,0.058-0.111,0.129L6.74,4.113
		c0.011,0.072,0.077,0.13,0.147,0.13h2.736c0.232,0,0.445,0.187,0.479,0.418c0.032,0.23-0.129,0.418-0.36,0.418H6.618
		c-0.462,0-0.89-0.375-0.955-0.836L5.604,3.825C5.54,3.363,5.862,2.988,6.324,2.988H8.9c0.072,0,0.122-0.058,0.112-0.129L8.989,2.7
		c-0.01-0.072-0.075-0.13-0.147-0.13H5.559c-0.071,0-0.138-0.058-0.147-0.129L5.284,1.537z M2.71,4.662
		C2.678,4.431,2.839,4.243,3.069,4.243h1.145c0.23,0,0.443,0.188,0.477,0.418C4.723,4.892,4.563,5.08,4.331,5.08H3.187
		C2.956,5.08,2.742,4.892,2.71,4.662z M0.708,1.537c-0.064-0.462,0.258-0.836,0.72-0.836h2.706c0.462,0,0.89,0.375,0.955,0.836
		l0.027,0.197c0.064,0.462-0.258,0.837-0.72,0.837H1.819c-0.071,0-0.121,0.058-0.11,0.129L1.73,2.859
		c0.011,0.072,0.076,0.13,0.147,0.13h2.159c0.231,0,0.444,0.187,0.478,0.418c0.031,0.231-0.129,0.418-0.359,0.418H1.867
		c-0.462,0-0.89-0.375-0.955-0.836L0.708,1.537z"/>
	<path fill="#FFFFFF" d="M16.841,2.57h1.93c0.072,0,0.139,0.058,0.148,0.13l0.198,1.413c0.011,0.072-0.04,0.13-0.111,0.13h-1.931
		c-0.071,0-0.137-0.058-0.147-0.13L16.729,2.7C16.72,2.628,16.769,2.57,16.841,2.57z"/>
</g>
</svg>
